<svg width="39" height="38" viewBox="0 0 39 38" fill="none" xmlns="http://www.w3.org/2000/svg">
<path d="M19.5 0.859375C15.7453 0.859375 12.0748 1.9233 8.95285 3.91662C5.83089 5.90994 3.39762 8.74312 1.96073 12.0579C0.523851 15.3726 0.147897 19.0201 0.880413 22.5391C1.61293 26.058 3.42102 29.2903 6.07603 31.8274C8.73104 34.3644 12.1137 36.0921 15.7963 36.7921C19.4789 37.492 23.2961 37.1328 26.765 35.7598C30.234 34.3867 33.1989 32.0616 35.2849 29.0784C37.371 26.0952 38.4844 22.5879 38.4844 19C38.4788 14.1904 36.4769 9.5794 32.9178 6.17853C29.3588 2.77766 24.5333 0.86471 19.5 0.859375ZM10.9869 30.5176C11.9662 29.2382 13.2474 28.1975 14.7266 27.4801C16.2058 26.7627 17.8412 26.3888 19.5 26.3888C21.1588 26.3888 22.7942 26.7627 24.2734 27.4801C25.7526 28.1975 27.0339 29.2382 28.0131 30.5176C25.525 32.2037 22.5502 33.1093 19.5 33.1093C16.4498 33.1093 13.475 32.2037 10.9869 30.5176ZM14.5781 17.6562C14.5781 16.7261 14.8668 15.8168 15.4076 15.0433C15.9484 14.2699 16.7171 13.6671 17.6165 13.3111C18.5158 12.9552 19.5055 12.862 20.4602 13.0435C21.415 13.225 22.292 13.6729 22.9803 14.3306C23.6686 14.9884 24.1374 15.8264 24.3273 16.7387C24.5172 17.651 24.4198 18.5967 24.0472 19.4561C23.6747 20.3154 23.0439 21.05 22.2345 21.5668C21.4251 22.0835 20.4735 22.3594 19.5 22.3594C18.1946 22.3594 16.9427 21.8639 16.0197 20.9819C15.0967 20.0999 14.5781 18.9036 14.5781 17.6562ZM31.1016 27.7243C29.7344 26.0626 27.9917 24.7178 26.0039 23.7905C27.2708 22.5646 28.1299 21.0081 28.4733 19.3169C28.8167 17.6256 28.629 15.875 27.9338 14.2854C27.2386 12.6958 26.067 11.3382 24.5663 10.3833C23.0656 9.42841 21.303 8.91891 19.5 8.91891C17.6971 8.91891 15.9344 9.42841 14.4337 10.3833C12.933 11.3382 11.7614 12.6958 11.0662 14.2854C10.371 15.875 10.1833 17.6256 10.5267 19.3169C10.8701 21.0081 11.7293 22.5646 12.9961 23.7905C11.0083 24.7178 9.26565 26.0626 7.89845 27.7243C6.18114 25.6441 5.11151 23.1439 4.81199 20.5098C4.51248 17.8758 4.99518 15.2144 6.20484 12.8303C7.41451 10.4462 9.30225 8.43573 11.652 7.02906C14.0017 5.62239 16.7184 4.87635 19.4912 4.87635C22.264 4.87635 24.9807 5.62239 27.3305 7.02906C29.6802 8.43573 31.5679 10.4462 32.7776 12.8303C33.9873 15.2144 34.47 17.8758 34.1704 20.5098C33.8709 23.1439 32.8013 25.6441 31.084 27.7243H31.1016Z" fill="black"/>
</svg>
